<?xml version="1.0" encoding="UTF-8" standalone="no"?>
<!-- Created with Inkscape (http://www.inkscape.org/) -->

<svg
   version="1.1"
   id="svg1"
   width="2298"
   height="409"
   viewBox="175 665 2298 409"
   sodipodi:docname="upload_eyvogzcdmqg3w3hfoc5d43yuwx.pdf"
   xmlns:inkscape="http://www.inkscape.org/namespaces/inkscape"
   xmlns:sodipodi="http://sodipodi.sourceforge.net/DTD/sodipodi-0.dtd"
   xmlns="http://www.w3.org/2000/svg"
   xmlns:svg="http://www.w3.org/2000/svg">
  <defs
     id="defs1">
    <clipPath
       clipPathUnits="userSpaceOnUse"
       id="clipPath2">
      <path
         d="M 0,0 H 8275 V 5371.875 H 0 Z"
         transform="scale(0.31999999)"
         clip-rule="evenodd"
         id="path2" />
    </clipPath>
    <clipPath
       clipPathUnits="userSpaceOnUse"
       id="clipPath3">
      <path
         d="M 0,0 H 8274.9961 V 5371.8726 H 0 Z"
         transform="scale(0.31999999)"
         clip-rule="evenodd"
         id="path3" />
    </clipPath>
    <clipPath
       clipPathUnits="userSpaceOnUse"
       id="clipPath4">
      <path
         d="M 0,0 H 194 V 250 H 0 Z"
         transform="matrix(0.68885063,0,0,0.68885063,16.118058,16.075651)"
         id="path4" />
    </clipPath>
    <clipPath
       clipPathUnits="userSpaceOnUse"
       id="clipPath5">
      <path
         d="M 5902.4155,1103.4299 V 854.47717 h 189.1319 v 51.0575 h -125.4053 v 43.96087 h 114.5937 v 49.81916 h -114.5937 v 53.2483 h 129.4536 v 50.8669 z"
         transform="matrix(0.31999999,0,0,0.31999999,187.19999,677.16003)"
         id="path5" />
    </clipPath>
    <clipPath
       clipPathUnits="userSpaceOnUse"
       id="clipPath6">
      <path
         d="M 0,0 H 177 V 189 H 0 Z"
         transform="matrix(0.68885063,0,0,0.68885063,170.4206,58.095539)"
         id="path6" />
    </clipPath>
    <clipPath
       clipPathUnits="userSpaceOnUse"
       id="clipPath7">
      <path
         d="M 6126.7925,1103.4299 V 919.72791 h 58.8208 v 25.19531 c 6.3345,-10.04956 14.0503,-17.47956 23.147,-22.38526 9.0971,-4.9057 20.0039,-7.33477 32.6254,-7.33477 21.5279,0 37.1026,5.38202 46.7237,16.14599 9.6206,10.76398 14.4311,28.33881 14.4311,52.62921 v 119.45151 h -60.1543 v -92.4463 c 0,-21.62325 -1.81,-35.38777 -5.4297,-41.34133 -3.6201,-5.95355 -10.2402,-8.85882 -19.9565,-8.85882 -10.5732,0 -18.2891,3.52447 -23.147,10.57342 -4.8584,7.04901 -7.2871,18.28925 -7.2871,33.72083 v 98.3522 z"
         transform="matrix(0.31999999,0,0,0.31999999,187.19999,677.16003)"
         id="path7" />
    </clipPath>
    <clipPath
       clipPathUnits="userSpaceOnUse"
       id="clipPath8">
      <path
         d="M 0,0 H 187 V 197 H 0 Z"
         transform="matrix(0.68885063,0,0,0.68885063,310.25728,56.717838)"
         id="path8" />
    </clipPath>
    <clipPath
       clipPathUnits="userSpaceOnUse"
       id="clipPath9">
      <path
         d="m 6389.2236,992.0752 68.4419,-0.19056 c -0.2378,-11.81176 -3.334,-21.05163 -9.3828,-27.7196 -6.0488,-6.66797 -14.2886,-9.95435 -24.7666,-9.95435 -9.9067,0 -17.813,3.28638 -23.7187,9.81147 -5.9058,6.52508 -9.4307,15.90777 -10.5738,28.05304 m 65.3936,53.5818 h 57.8208 c -5.4297,20.1943 -16.0508,35.7688 -31.8633,46.8185 -15.8125,11.0498 -35.4829,16.5746 -58.916,16.5746 -28.5293,0 -51.0576,-8.6683 -67.5845,-25.9573 -16.5268,-17.2891 -24.8618,-40.8651 -24.8618,-70.728 0,-30.43444 8.335,-54.48669 25.0049,-72.25201 16.6694,-17.76538 39.1504,-26.6242 67.4414,-26.6242 29.1963,0 52.1055,9.00171 68.7749,27.05285 16.6699,18.05109 25.0049,42.91303 25.0049,74.72866 0,2.9529 -0.047,5.1439 -0.095,6.6679 -0.047,1.5242 -0.1426,2.8578 -0.2378,3.9532 h -124.2149 c 0,12.9549 2.8106,22.8616 8.3828,29.6724 5.5723,6.8109 13.7647,10.2401 24.5762,10.2401 8.0015,0 14.5742,-1.7146 19.7656,-5.0963 5.1914,-3.3816 8.8589,-8.3826 11.002,-15.0504"
         transform="matrix(0.31999999,0,0,0.31999999,187.19999,677.16003)"
         id="path9" />
    </clipPath>
    <clipPath
       clipPathUnits="userSpaceOnUse"
       id="clipPath10">
      <path
         d="M 0,0 H 120 V 189 H 0 Z"
         transform="matrix(0.68885063,0,0,0.68885063,456.98246,58.095539)"
         id="path10" />
    </clipPath>
    <clipPath
       clipPathUnits="userSpaceOnUse"
       id="clipPath11">
      <path
         d="M 6542.9199,1103.4299 V 919.72791 h 57.8208 v 32.10144 c 6.4302,-12.62153 14.4317,-21.81379 24.0049,-27.62439 9.5732,-5.81067 21.7661,-8.81122 36.4829,-9.04938 v 59.48767 c -2.5718,-0.33344 -5.1435,-0.57153 -7.668,-0.76209 -2.5244,-0.19049 -4.9531,-0.23809 -7.1918,-0.23809 -9.2398,0 -16.8604,1.38122 -22.9092,4.14361 -6.0489,2.76245 -10.8594,7.00134 -14.4312,12.76441 -2.2387,3.81024 -3.8579,9.33514 -4.8105,16.47941 -0.9527,7.1442 -1.4287,18.7178 -1.4287,34.721 v 61.6784 z"
         transform="matrix(0.31999999,0,0,0.31999999,187.19999,677.16003)"
         id="path11" />
    </clipPath>
    <clipPath
       clipPathUnits="userSpaceOnUse"
       id="clipPath12">
      <path
         d="M 0,0 H 193 V 264 H 0 Z"
         transform="matrix(0.68885063,0,0,0.68885063,548.59959,57.406689)"
         id="path12" />
    </clipPath>
    <clipPath
       clipPathUnits="userSpaceOnUse"
       id="clipPath13">
      <path
         d="m 6737.7197,1010.6501 c 0,14.6696 3.0957,26.1956 9.2876,34.5782 6.1914,8.3825 14.6216,12.5738 25.3379,12.5738 11.3833,0 20.2422,-4.1436 26.5288,-12.4309 6.2871,-8.2873 9.4781,-19.8609 9.4781,-34.7211 0,-16.09828 -2.9527,-28.3387 -8.8589,-36.67366 -5.9058,-8.33496 -14.6216,-12.52624 -26.1001,-12.52624 -11.4781,0 -20.2896,4.23895 -26.4336,12.66912 -6.1441,8.43024 -9.1924,20.62305 -9.1924,36.48318 m -51.9146,108.3543 h 60.1543 c 1.5718,5.5249 4.6675,9.6208 9.1924,12.2405 4.5244,2.6195 10.7163,3.9531 18.5274,3.9531 12.955,0 22.0996,-2.9053 27.3862,-8.7159 5.2866,-5.8107 7.9541,-16.2413 7.9541,-31.3395 v -19.3847 c -6.5254,9.9068 -14.5269,17.2891 -23.9097,22.1471 -9.3828,4.8582 -20.3847,7.2871 -32.8633,7.2871 -22.5283,0 -40.9604,-8.7159 -55.249,-26.1002 -14.2881,-17.3843 -21.48,-40.1029 -21.48,-68.0131 0,-28.62458 7.1441,-51.81953 21.48,-69.53724 14.3364,-17.71765 32.959,-26.62415 55.9634,-26.62415 12.7168,0 23.7666,2.38141 33.1494,7.09662 9.3828,4.71521 17.6699,12.19281 25.0044,22.28998 v -24.5285 h 56.4395 v 151.60069 c 0,22.8615 -0.857,38.9599 -2.524,48.2473 -1.667,9.2876 -4.5249,17.0509 -8.478,23.2427 -7.1919,11.3831 -17.7178,20.0038 -31.5298,25.8621 -13.812,5.8582 -30.3393,8.7636 -49.6284,8.7636 -27.8149,0 -49.0571,-4.7629 -63.6313,-14.2885 -14.5747,-9.5257 -23.2427,-24.2428 -25.9576,-44.199"
         transform="matrix(0.31999999,0,0,0.31999999,187.19999,677.16003)"
         id="path13" />
    </clipPath>
    <clipPath
       clipPathUnits="userSpaceOnUse"
       id="clipPath14">
      <path
         d="M 0,0 H 199 V 260 H 0 Z"
         transform="matrix(0.68885063,0,0,0.68885063,691.19167,60.850942)"
         id="path14" />
    </clipPath>
    <clipPath
       clipPathUnits="userSpaceOnUse"
       id="clipPath15">
      <path
         d="m 7007.3906,1123.9102 c -6.1914,17.1461 -11.4785,29.0056 -15.9077,35.6735 -4.4297,6.6679 -9.478,11.2879 -15.1933,13.8598 -4.2867,1.8099 -9.4781,3.0958 -15.6221,3.9055 -6.1441,0.8097 -17.0034,1.1907 -32.5303,1.1907 h -15.8599 v -47.7235 h 11.669 c 11.1445,0 18.7651,-1.4289 22.9092,-4.2389 4.1435,-2.8101 6.1914,-7.6681 6.1914,-14.5266 0,-4.6199 -2.7627,-14.0503 -8.2871,-28.2436 l -0.667,-1.524 -61.9644,-162.55519 h 64.7744 l 34.4829,125.26219 35.3399,-125.26219 h 64.0127 z"
         transform="matrix(0.31999999,0,0,0.31999999,187.19999,677.16003)"
         id="path15" />
    </clipPath>
    <clipPath
       clipPathUnits="userSpaceOnUse"
       id="clipPath16">
      <path
         d="M 0,0 H 611 V 726 H 0 Z"
         transform="matrix(0.33059763,0,0,0.33059763,260.36791,7.7558875)"
         id="path16" />
    </clipPath>
    <clipPath
       clipPathUnits="userSpaceOnUse"
       id="clipPath17">
      <path
         d="m 1210.7632,471.39432 163.889,242.42862 c 10.1448,15.00293 -0.6191,35.19738 -18.6704,35.19738 H 1227.8617 L 1021.9645,472.01349 c -35.0068,0 -63.3456,28.38653 -63.3456,63.34582 V 643.1424 c 0,26.62426 -35.81653,35.19738 -47.8664,11.43078 L 788.01434,412.38272 V 24.354002 H 958.6189 V 238.01508 c 0,35.00686 28.38641,63.34579 63.3456,63.34579 L 1227.8617,24.354002 h 170.6046 L 1210.8108,301.98004 c -34.5781,51.15293 -34.5781,118.21372 0,169.41428"
         transform="matrix(0.31999999,0,0,0.31999999,187.19999,677.16003)"
         id="path17" />
    </clipPath>
    <clipPath
       clipPathUnits="userSpaceOnUse"
       id="clipPath18">
      <path
         d="M 0,0 H 878 V 726 H 0 Z"
         transform="matrix(0.33059763,0,0,0.33059763,6.7995276,7.7558875)"
         id="path18" />
    </clipPath>
    <clipPath
       clipPathUnits="userSpaceOnUse"
       id="clipPath19">
      <path
         d="M 874.55493,749.02032 H 720.42975 L 510.34131,332.08121 H 411.03622 L 200.94778,749.02032 H 46.82259 c -16.812796,0 -27.719677,-17.71777 -20.146776,-32.7207 L 375.41028,24.354002 H 546.01483 L 894.70172,716.29962 c 7.57288,15.00293 -3.33398,32.7207 -20.14679,32.7207"
         transform="matrix(0.31999999,0,0,0.31999999,187.19999,677.16003)"
         id="path19" />
    </clipPath>
    <clipPath
       clipPathUnits="userSpaceOnUse"
       id="clipPath20">
      <path
         d="M 0,0 H 723 V 726 H 0 Z"
         transform="matrix(0.33059763,0,0,0.33059763,442.5272,7.7558875)"
         id="path20" />
    </clipPath>
    <clipPath
       clipPathUnits="userSpaceOnUse"
       id="clipPath21">
      <path
         d="M 2061.0713,24.354002 V 194.95898 h -174.7959 c -24.9096,0 -45.104,20.19445 -45.104,45.10412 V 749.02032 H 1670.5668 V 240.0631 c 0,-24.90967 -20.1944,-45.10412 -45.1039,-45.10412 H 1339.2644 L 1450.6193,24.354002 Z"
         transform="matrix(0.31999999,0,0,0.31999999,187.19999,677.16003)"
         id="path21" />
    </clipPath>
    <clipPath
       clipPathUnits="userSpaceOnUse"
       id="clipPath22">
      <path
         d="M 0,0 H 447 V 726 H 0 Z"
         transform="matrix(0.33059763,0,0,0.33059763,2120.9714,7.7558875)"
         id="path22" />
    </clipPath>
    <clipPath
       clipPathUnits="userSpaceOnUse"
       id="clipPath23">
      <path
         d="M 6862.2432,577.65332 V 24.354002 h -148.0288 c -12.4312,0 -22.5284,10.097223 -22.5284,22.528242 V 490.25519 c 0,48.67627 -39.4843,88.16022 -88.1601,88.16022 h -186.9888 l 88.8272,170.60491 h 185.5117 c 94.6372,0 171.3672,-76.72937 171.3672,-171.367"
         transform="matrix(0.31999999,0,0,0.31999999,187.19999,677.16003)"
         id="path23" />
    </clipPath>
    <clipPath
       clipPathUnits="userSpaceOnUse"
       id="clipPath24">
      <path
         d="M 0,0 H 556 V 726 H 0 Z"
         transform="matrix(0.33059763,0,0,0.33059763,1341.0916,7.7558875)"
         id="path24" />
    </clipPath>
    <clipPath
       clipPathUnits="userSpaceOnUse"
       id="clipPath25">
      <path
         d="m 4612.6626,578.46301 v 170.60498 h -532.8181 c -12.4307,0 -22.5757,-10.09723 -22.5757,-22.52826 V 578.46301 h 1.2861 V 46.929874 c 0,-12.431018 10.0972,-22.528242 22.5281,-22.528242 h 531.5796 V 194.95898 H 4274.311 c -24.9091,0 -45.104,20.19445 -45.104,45.10412 v 61.34538 h 383.4556 V 472.01349 H 4229.207 v 106.44952 z"
         transform="matrix(0.31999999,0,0,0.31999999,187.19999,677.16003)"
         id="path25" />
    </clipPath>
    <clipPath
       clipPathUnits="userSpaceOnUse"
       id="clipPath26">
      <path
         d="M 0,0 H 172 V 518 H 0 Z"
         transform="matrix(0.33059763,0,0,0.33059763,2283.6254,76.520194)"
         id="path26" />
    </clipPath>
    <clipPath
       clipPathUnits="userSpaceOnUse"
       id="clipPath27">
      <path
         d="m 6908.7759,232.68069 v 345.73472 c 0,94.20892 76.396,170.60491 170.604,170.60491 V 386.37759 232.68069 Z"
         transform="matrix(0.31999999,0,0,0.31999999,187.19999,677.16003)"
         id="path27" />
    </clipPath>
    <clipPath
       clipPathUnits="userSpaceOnUse"
       id="clipPath28">
      <path
         d="M 0,0 H 172 V 158 H 0 Z"
         transform="matrix(0.33059763,0,0,0.33059763,2283.6254,7.7558875)"
         id="path28" />
    </clipPath>
    <clipPath
       clipPathUnits="userSpaceOnUse"
       id="clipPath29">
      <path
         d="M 6908.7759,24.401632 V 181.67067 h 170.604 V 71.220367 c 0,-25.862232 -20.9561,-46.818735 -46.8184,-46.818735 z"
         transform="matrix(0.31999999,0,0,0.31999999,187.19999,677.16003)"
         id="path29" />
    </clipPath>
    <clipPath
       clipPathUnits="userSpaceOnUse"
       id="clipPath30">
      <path
         d="M 0,0 H 555 V 726 H 0 Z"
         transform="matrix(0.33059763,0,0,0.33059763,1539.4501,7.7558875)"
         id="path30" />
    </clipPath>
    <clipPath
       clipPathUnits="userSpaceOnUse"
       id="clipPath31">
      <path
         d="M 5211.8267,24.354002 V 240.0631 749.06799 H 5041.2222 L 4828.3716,371.70804 v 354.78403 c 0,12.43103 -10.0977,22.52825 -22.5283,22.52825 H 4657.7666 V 24.354002 h 170.605 L 5041.2222,401.7616 V 46.929874 c 0,-12.431018 10.0971,-22.528242 22.5278,-22.528242 z"
         transform="matrix(0.31999999,0,0,0.31999999,187.19999,677.16003)"
         id="path31" />
    </clipPath>
    <clipPath
       clipPathUnits="userSpaceOnUse"
       id="clipPath32">
      <path
         d="M 0,0 H 555 V 726 H 0 Z"
         transform="matrix(0.33059763,0,0,0.33059763,1736.1557,7.7558875)"
         id="path32" />
    </clipPath>
    <clipPath
       clipPathUnits="userSpaceOnUse"
       id="clipPath33">
      <path
         d="m 5423.2012,240.0631 v 61.34538 h 383.4555 v 170.60501 h -383.4555 v 106.44952 h 383.4555 v 170.60498 h -554.06 V 24.354002 h 554.06 V 194.95898 h -338.3515 c -24.9097,0 -45.104,20.19445 -45.104,45.10412"
         transform="matrix(0.31999999,0,0,0.31999999,187.19999,677.16003)"
         id="path33" />
    </clipPath>
    <clipPath
       clipPathUnits="userSpaceOnUse"
       id="clipPath34">
      <path
         d="M 0,0 H 2 V 172 H 0 Z"
         transform="matrix(0.33059763,0,0,0.33059763,1763.5953,190.90697)"
         id="path34" />
    </clipPath>
    <clipPath
       clipPathUnits="userSpaceOnUse"
       id="clipPath35">
      <path
         d="m 5335.041,578.46301 h 1.2861 v 170.60498 h -1.2861 z"
         transform="matrix(0.31999999,0,0,0.31999999,187.19999,677.16003)"
         clip-rule="evenodd"
         id="path35" />
    </clipPath>
    <clipPath
       clipPathUnits="userSpaceOnUse"
       id="clipPath36">
      <path
         d="M 0,0 H 172 V 175 H 0 Z"
         transform="matrix(0.33059763,0,0,0.33059763,841.88915,7.7558875)"
         id="path36" />
    </clipPath>
    <clipPath
       clipPathUnits="userSpaceOnUse"
       id="clipPath37">
      <path
         d="m 2547.4993,24.354002 h 170.6045 V 198.29296 h -170.6045 z"
         transform="matrix(0.31999999,0,0,0.31999999,187.19999,677.16003)"
         clip-rule="evenodd"
         id="path37" />
    </clipPath>
    <clipPath
       clipPathUnits="userSpaceOnUse"
       id="clipPath38">
      <path
         d="M 0,0 H 172 V 175 H 0 Z"
         transform="matrix(0.33059763,0,0,0.33059763,769.15767,7.7558875)"
         id="path38" />
    </clipPath>
    <clipPath
       clipPathUnits="userSpaceOnUse"
       id="clipPath39">
      <path
         d="m 2327.5518,24.354002 h 170.6045 V 198.29296 h -170.6045 z"
         transform="matrix(0.31999999,0,0,0.31999999,187.19999,677.16003)"
         clip-rule="evenodd"
         id="path39" />
    </clipPath>
    <clipPath
       clipPathUnits="userSpaceOnUse"
       id="clipPath40">
      <path
         d="M 0,0 H 612 V 728 H 0 Z"
         transform="matrix(0.33059763,0,0,0.33059763,913.62883,7.7558875)"
         id="path40" />
    </clipPath>
    <clipPath
       clipPathUnits="userSpaceOnUse"
       id="clipPath41">
      <path
         d="m 3106.5603,557.31598 98.4478,193.75238 h 170.1284 l -120.595,-237.23712 c 72.6331,-47.58081 120.595,-129.69217 120.595,-222.99625 0,-73.58591 -29.8157,-140.21806 -78.0628,-188.46564 C 3248.8259,54.121761 3182.1941,24.354002 3108.6084,24.354002 H 2764.6367 V 749.02032 h 170.6045 V 557.31598 386.711 194.95898 h 173.3672 c 52.9624,0 95.8757,42.9132 95.8757,95.87601 0,26.48142 -10.7165,50.43851 -28.1008,67.77524 -17.3843,17.33673 -41.3413,28.10077 -67.7749,28.10077 h -88.7317 z"
         transform="matrix(0.31999999,0,0,0.31999999,187.19999,677.16003)"
         id="path41" />
    </clipPath>
    <clipPath
       clipPathUnits="userSpaceOnUse"
       id="clipPath42">
      <path
         d="M 0,0 H 611 V 728 H 0 Z"
         transform="matrix(0.33059763,0,0,0.33059763,1934.8449,7.7558875)"
         id="path42" />
    </clipPath>
    <clipPath
       clipPathUnits="userSpaceOnUse"
       id="clipPath43">
      <path
         d="m 6195.1606,557.31598 98.4478,193.75238 h 170.1279 L 6343.1421,513.83124 c 72.6328,-47.58081 120.5942,-129.69217 120.5942,-222.99625 0,-73.58591 -29.8144,-140.21806 -78.0625,-188.46564 -48.2475,-48.247589 -114.8794,-78.015348 -188.4653,-78.015348 h -344.019 V 749.02032 h 148.0761 c 12.4317,0 22.5288,-10.09722 22.5288,-22.52825 V 557.31598 386.711 194.95898 h 171.9859 c 53.0576,0 97.0664,42.48456 97.3042,95.49497 0.095,26.6243 -10.6685,50.72427 -28.1001,68.15628 -17.3374,17.33673 -41.3418,28.10077 -67.7759,28.10077 h -88.7314 z"
         transform="matrix(0.31999999,0,0,0.31999999,187.19999,677.16003)"
         id="path43" />
    </clipPath>
    <clipPath
       clipPathUnits="userSpaceOnUse"
       id="clipPath44">
      <path
         d="M 0,0 H 612 V 726 H 0 Z"
         transform="matrix(0.33059763,0,0,0.33059763,696.42619,7.7558875)"
         id="path44" />
    </clipPath>
    <clipPath
       clipPathUnits="userSpaceOnUse"
       id="clipPath45">
      <path
         d="m 2547.4993,242.96843 v 200.80138 c 0,74.34799 -60.2974,134.6456 -134.6453,134.6456 -74.3477,0 -134.6453,-60.29761 -134.6453,-134.6456 V 24.354002 H 2107.6042 V 450.43781 c 0,164.88958 133.6927,298.58251 298.6294,298.58251 h 13.2408 c 164.8891,0 298.5818,-133.69293 298.5818,-298.58251 V 242.96843 Z"
         transform="matrix(0.31999999,0,0,0.31999999,187.19999,677.16003)"
         id="path45" />
    </clipPath>
    <clipPath
       clipPathUnits="userSpaceOnUse"
       id="clipPath46">
      <path
         d="M 0,0 H 594 V 726 H 0 Z"
         transform="matrix(0.33059763,0,0,0.33059763,1130.8315,7.7558875)"
         id="path46" />
    </clipPath>
    <clipPath
       clipPathUnits="userSpaceOnUse"
       id="clipPath47">
      <path
         d="m 3834.178,456.24847 174.1291,257.62214 c 10.1448,15.00293 -0.6194,35.19738 -18.718,35.19738 H 3861.469 l -205.8494,-277.0545 h -0.048 c -35.0069,0 -63.3455,28.38653 -63.3455,63.34582 V 749.02032 H 3421.6214 V 24.354002 h 170.6047 V 238.01508 c 0,35.00686 28.3862,63.34579 63.3455,63.34579 h 0.048 l 205.897,-277.006868 h 128.1201 c 18.0987,0 28.8152,20.194448 18.6704,35.197401 L 3834.178,317.12589 c -28.3865,42.00823 -28.3865,97.06668 0,139.07495"
         transform="matrix(0.31999999,0,0,0.31999999,187.19999,677.16003)"
         id="path47" />
    </clipPath>
    <clipPath
       clipPathUnits="userSpaceOnUse"
       id="clipPath48">
      <path
         d="M 0,0 H 8275 V 5372 H 0 Z"
         transform="matrix(0.31999999,0,0,0.31999999,0,10.280053)"
         id="path48" />
    </clipPath>
    <clipPath
       clipPathUnits="userSpaceOnUse"
       id="clipPath92">
      <path
         d="M 0,0 H 8275 V 5371.875 H 0 Z"
         transform="matrix(0.31999999,0,0,0.31999999,0,10.280053)"
         clip-rule="evenodd"
         id="path92" />
    </clipPath>
  </defs>
  <sodipodi:namedview
     id="namedview1"
     pagecolor="#ffffff"
     bordercolor="#000000"
     borderopacity="0.25"
     inkscape:showpageshadow="2"
     inkscape:pageopacity="0.0"
     inkscape:pagecheckerboard="0"
     inkscape:deskcolor="#d1d1d1">
    <inkscape:page
       x="0"
       y="0"
       inkscape:label="1"
       id="page1"
       width="2648"
       height="1719"
       margin="0"
       bleed="0" />
  </sodipodi:namedview>
  <g
     id="g1"
     inkscape:groupmode="layer"
     inkscape:label="1">
    
    <g
       id="g92"
       clip-path="url(#clipPath92)">
      
      <g
         clip-path="url(#clipPath48)"
         id="g91">
        <g
           clip-path="url(#clipPath5)"
           id="g51">
          <g
             id="g50">
            <path
               d="M 0,0 H 845 V 256 H 0 Z"
               style="fill:#3f3e3f;fill-opacity:1;fill-rule:nonzero;stroke:none"
               transform="matrix(0.46454191,0,0,0.46454191,2068.3524,942.9722)"
               clip-path="url(#clipPath4)"
               id="path50" />
          </g>
        </g>
        <g
           clip-path="url(#clipPath7)"
           id="g53">
          <g
             id="g52">
            <path
               d="M 0,0 H 845 V 256 H 0 Z"
               style="fill:#3f3e3f;fill-opacity:1;fill-rule:nonzero;stroke:none"
               transform="matrix(0.46454191,0,0,0.46454191,2068.3524,942.9722)"
               clip-path="url(#clipPath6)"
               id="path51" />
          </g>
        </g>
        <g
           clip-path="url(#clipPath9)"
           id="g55">
          <g
             id="g54">
            <path
               d="M 0,0 H 845 V 256 H 0 Z"
               style="fill:#3f3e3f;fill-opacity:1;fill-rule:nonzero;stroke:none"
               transform="matrix(0.46454191,0,0,0.46454191,2068.3524,942.9722)"
               clip-path="url(#clipPath8)"
               id="path53" />
          </g>
        </g>
        <g
           clip-path="url(#clipPath11)"
           id="g57">
          <g
             id="g56">
            <path
               d="M 0,0 H 845 V 256 H 0 Z"
               style="fill:#3f3e3f;fill-opacity:1;fill-rule:nonzero;stroke:none"
               transform="matrix(0.46454191,0,0,0.46454191,2068.3524,942.9722)"
               clip-path="url(#clipPath10)"
               id="path55" />
          </g>
        </g>
        <g
           clip-path="url(#clipPath13)"
           id="g59">
          <g
             id="g58">
            <path
               d="M 0,0 H 845 V 256 H 0 Z"
               style="fill:#3f3e3f;fill-opacity:1;fill-rule:nonzero;stroke:none"
               transform="matrix(0.46454191,0,0,0.46454191,2068.3524,942.9722)"
               clip-path="url(#clipPath12)"
               id="path57" />
          </g>
        </g>
        <g
           clip-path="url(#clipPath15)"
           id="g61">
          <g
             id="g60">
            <path
               d="M 0,0 H 845 V 256 H 0 Z"
               style="fill:#3f3e3f;fill-opacity:1;fill-rule:nonzero;stroke:none"
               transform="matrix(0.46454191,0,0,0.46454191,2068.3524,942.9722)"
               clip-path="url(#clipPath14)"
               id="path59" />
          </g>
        </g>
        <g
           clip-path="url(#clipPath17)"
           id="g63">
          <g
             id="g62">
            <path
               d="M 0,0 H 2348 V 256 H 0 Z"
               style="fill:#3f3e3f;fill-opacity:1;fill-rule:nonzero;stroke:none"
               transform="matrix(0.96794399,0,0,0.96794399,187.33843,677.33276)"
               clip-path="url(#clipPath16)"
               id="path61" />
          </g>
        </g>
        <g
           clip-path="url(#clipPath19)"
           id="g65">
          <g
             id="g64">
            <path
               d="M 0,0 H 2348 V 256 H 0 Z"
               style="fill:#3f3e3f;fill-opacity:1;fill-rule:nonzero;stroke:none"
               transform="matrix(0.96794399,0,0,0.96794399,187.33843,677.33276)"
               clip-path="url(#clipPath18)"
               id="path63" />
          </g>
        </g>
        <g
           clip-path="url(#clipPath21)"
           id="g67">
          <g
             id="g66">
            <path
               d="M 0,0 H 2348 V 256 H 0 Z"
               style="fill:#3f3e3f;fill-opacity:1;fill-rule:nonzero;stroke:none"
               transform="matrix(0.96794399,0,0,0.96794399,187.33843,677.33276)"
               clip-path="url(#clipPath20)"
               id="path65" />
          </g>
        </g>
        <g
           clip-path="url(#clipPath23)"
           id="g69">
          <g
             id="g68">
            <path
               d="M 0,0 H 2348 V 256 H 0 Z"
               style="fill:#2d7dc1;fill-opacity:1;fill-rule:nonzero;stroke:none"
               transform="matrix(0.96794399,0,0,0.96794399,187.33842,677.33276)"
               clip-path="url(#clipPath22)"
               id="path67" />
          </g>
        </g>
        <g
           clip-path="url(#clipPath25)"
           id="g71">
          <g
             id="g70">
            <path
               d="M 0,0 H 2348 V 256 H 0 Z"
               style="fill:#2d7dc1;fill-opacity:1;fill-rule:nonzero;stroke:none"
               transform="matrix(0.96794399,0,0,0.96794399,187.33842,677.33276)"
               clip-path="url(#clipPath24)"
               id="path69" />
          </g>
        </g>
        <g
           clip-path="url(#clipPath27)"
           id="g73">
          <g
             id="g72">
            <path
               d="M 0,0 H 2348 V 256 H 0 Z"
               style="fill:#2d7dc1;fill-opacity:1;fill-rule:nonzero;stroke:none"
               transform="matrix(0.96794399,0,0,0.96794399,187.33842,677.33276)"
               clip-path="url(#clipPath26)"
               id="path71" />
          </g>
        </g>
        <g
           clip-path="url(#clipPath29)"
           id="g75">
          <g
             id="g74">
            <path
               d="M 0,0 H 2348 V 256 H 0 Z"
               style="fill:#2d7dc1;fill-opacity:1;fill-rule:nonzero;stroke:none"
               transform="matrix(0.96794399,0,0,0.96794399,187.33842,677.33276)"
               clip-path="url(#clipPath28)"
               id="path73" />
          </g>
        </g>
        <g
           clip-path="url(#clipPath31)"
           id="g77">
          <g
             id="g76">
            <path
               d="M 0,0 H 2348 V 256 H 0 Z"
               style="fill:#2d7dc1;fill-opacity:1;fill-rule:nonzero;stroke:none"
               transform="matrix(0.96794399,0,0,0.96794399,187.33842,677.33276)"
               clip-path="url(#clipPath30)"
               id="path75" />
          </g>
        </g>
        <g
           clip-path="url(#clipPath33)"
           id="g79">
          <g
             id="g78">
            <path
               d="M 0,0 H 2348 V 256 H 0 Z"
               style="fill:#2d7dc1;fill-opacity:1;fill-rule:nonzero;stroke:none"
               transform="matrix(0.96794399,0,0,0.96794399,187.33842,677.33276)"
               clip-path="url(#clipPath32)"
               id="path77" />
          </g>
        </g>
        <g
           clip-path="url(#clipPath35)"
           id="g80">
          <path
             d="M 0,0 H 2348 V 256 H 0 Z"
             style="fill:#2d7dc1;fill-opacity:1;fill-rule:nonzero;stroke:none"
             transform="matrix(0.96794399,0,0,0.96794399,187.33842,677.33276)"
             clip-path="url(#clipPath34)"
             id="path79" />
        </g>
        <g
           clip-path="url(#clipPath37)"
           id="g81">
          <path
             d="M 0,0 H 2348 V 256 H 0 Z"
             style="fill:#3f3e3f;fill-opacity:1;fill-rule:nonzero;stroke:none"
             transform="matrix(0.96794399,0,0,0.96794399,187.33842,677.33276)"
             clip-path="url(#clipPath36)"
             id="path80" />
        </g>
        <g
           clip-path="url(#clipPath39)"
           id="g82">
          <path
             d="M 0,0 H 2348 V 256 H 0 Z"
             style="fill:#3f3e3f;fill-opacity:1;fill-rule:nonzero;stroke:none"
             transform="matrix(0.96794399,0,0,0.96794399,187.33842,677.33276)"
             clip-path="url(#clipPath38)"
             id="path81" />
        </g>
        <g
           clip-path="url(#clipPath41)"
           id="g84">
          <g
             id="g83">
            <path
               d="M 0,0 H 2348 V 256 H 0 Z"
               style="fill:#3f3e3f;fill-opacity:1;fill-rule:nonzero;stroke:none"
               transform="matrix(0.96794399,0,0,0.96794399,187.33842,677.33276)"
               clip-path="url(#clipPath40)"
               id="path82" />
          </g>
        </g>
        <g
           clip-path="url(#clipPath43)"
           id="g86">
          <g
             id="g85">
            <path
               d="M 0,0 H 2348 V 256 H 0 Z"
               style="fill:#2d7dc1;fill-opacity:1;fill-rule:nonzero;stroke:none"
               transform="matrix(0.96794399,0,0,0.96794399,187.33842,677.33276)"
               clip-path="url(#clipPath42)"
               id="path84" />
          </g>
        </g>
        <g
           clip-path="url(#clipPath45)"
           id="g88">
          <g
             id="g87">
            <path
               d="M 0,0 H 2348 V 256 H 0 Z"
               style="fill:#3f3e3f;fill-opacity:1;fill-rule:nonzero;stroke:none"
               transform="matrix(0.96794399,0,0,0.96794399,187.33842,677.33276)"
               clip-path="url(#clipPath44)"
               id="path86" />
          </g>
        </g>
        <g
           clip-path="url(#clipPath47)"
           id="g90">
          <g
             id="g89">
            <path
               d="M 0,0 H 2348 V 256 H 0 Z"
               style="fill:#3f3e3f;fill-opacity:1;fill-rule:nonzero;stroke:none"
               transform="matrix(0.96794399,0,0,0.96794399,187.33842,677.33276)"
               clip-path="url(#clipPath46)"
               id="path88" />
          </g>
        </g>
      </g>
    </g>
  </g>
</svg>
